<svg width="506" height="310" viewBox="0 0 506 310" fill="none" xmlns="http://www.w3.org/2000/svg">
<rect x="10" y="9" width="22" height="22" fill="black"/>
<rect x="10" y="83" width="91" height="129" fill="#6D6D6D"/>
<rect x="114" y="83" width="91" height="129" fill="#6D6D6D"/>
<rect x="219" y="83" width="91" height="129" fill="#6D6D6D"/>
<rect x="323" y="83" width="91" height="129" fill="#6D6D6D"/>
<rect x="10" y="229" width="91" height="81" fill="#6D6D6D"/>
<rect x="114" y="229" width="91" height="81" fill="#6D6D6D"/>
<rect x="219" y="229" width="91" height="81" fill="#6D6D6D"/>
<rect x="323" y="229" width="91" height="81" fill="#6D6D6D"/>
<rect x="44" y="15" width="57" height="10" fill="#6D6D6D"/>
<rect x="114" y="15" width="57" height="10" fill="#6D6D6D"/>
<rect x="184" y="15" width="57" height="10" fill="#6D6D6D"/>
<rect x="431" y="15" width="57" height="10" fill="#6D6D6D"/>
<rect x="361" y="54" width="127" height="10" fill="#6D6D6D" fill-opacity="0.4"/>
<rect x="403" y="9" width="22" height="22" rx="11" fill="black"/>
<rect x="383" y="12" width="16" height="16" rx="8" fill="#6D6D6D"/>
<rect x="361" y="12" width="16" height="16" rx="8" fill="#6D6D6D"/>
<path d="M16.1875 66L13.1875 61.9943H12.1136V66H11.0568V57.2727H12.1136V61.0568H12.5739L16.0682 57.2727H17.3295L13.8011 61.108L17.4489 66H16.1875ZM18.8455 68.4545C18.6751 68.4545 18.5231 68.4403 18.3896 68.4119C18.256 68.3864 18.1637 68.3608 18.1126 68.3352L18.3683 67.4489C18.6126 67.5114 18.8285 67.5341 19.016 67.517C19.2035 67.5 19.3697 67.4162 19.5146 67.2656C19.6623 67.1179 19.7972 66.8778 19.9194 66.5455L20.1069 66.0341L17.6864 59.4545H18.7773L20.5842 64.6705H20.6523L22.4592 59.4545H23.5501L20.7717 66.9545C20.6467 67.2926 20.4918 67.5724 20.3072 67.794C20.1225 68.0185 19.908 68.1847 19.6637 68.2926C19.4222 68.4006 19.1495 68.4545 18.8455 68.4545ZM24.8775 68.4545V59.4545H25.8491V60.4943H25.9684C26.0423 60.3807 26.1445 60.2358 26.2752 60.0597C26.4087 59.8807 26.5991 59.7216 26.8462 59.5824C27.0962 59.4403 27.4343 59.3693 27.8604 59.3693C28.4116 59.3693 28.8974 59.5071 29.3178 59.7827C29.7383 60.0582 30.0664 60.4489 30.3022 60.9545C30.538 61.4602 30.6559 62.0568 30.6559 62.7443C30.6559 63.4375 30.538 64.0384 30.3022 64.5469C30.0664 65.0526 29.7397 65.4446 29.3221 65.723C28.9045 65.9986 28.4229 66.1364 27.8775 66.1364C27.457 66.1364 27.1204 66.0668 26.8675 65.9276C26.6147 65.7855 26.4201 65.625 26.2837 65.446C26.1474 65.2642 26.0423 65.1136 25.9684 64.9943H25.8832V68.4545H24.8775ZM25.8661 62.7273C25.8661 63.2216 25.9386 63.6577 26.0835 64.0355C26.2283 64.4105 26.44 64.7045 26.7184 64.9176C26.9968 65.1278 27.3377 65.233 27.7411 65.233C28.1616 65.233 28.5124 65.1222 28.7937 64.9006C29.0778 64.6761 29.2908 64.375 29.4329 63.9972C29.5778 63.6165 29.6502 63.1932 29.6502 62.7273C29.6502 62.267 29.5792 61.8523 29.4371 61.483C29.2979 61.1108 29.0863 60.8168 28.8022 60.6009C28.521 60.3821 28.1673 60.2727 27.7411 60.2727C27.332 60.2727 26.9883 60.3764 26.7099 60.5838C26.4315 60.7884 26.2212 61.0753 26.0792 61.4446C25.9371 61.8111 25.8661 62.2386 25.8661 62.7273ZM34.8491 66.1364C34.2354 66.1364 33.707 65.9915 33.2638 65.7017C32.8207 65.4119 32.4798 65.0128 32.2411 64.5043C32.0025 63.9957 31.8832 63.4148 31.8832 62.7614C31.8832 62.0966 32.0053 61.5099 32.2496 61.0014C32.4968 60.4901 32.8406 60.0909 33.2809 59.804C33.7241 59.5142 34.2411 59.3693 34.832 59.3693C35.2923 59.3693 35.707 59.4545 36.0763 59.625C36.4457 59.7955 36.7482 60.0341 36.984 60.3409C37.2198 60.6477 37.3661 61.0057 37.4229 61.4148H36.4173C36.3406 61.1165 36.1701 60.8523 35.9059 60.6222C35.6445 60.3892 35.2923 60.2727 34.8491 60.2727C34.457 60.2727 34.1133 60.375 33.8178 60.5795C33.5252 60.7812 33.2965 61.0668 33.1317 61.4361C32.9698 61.8026 32.8888 62.233 32.8888 62.7273C32.8888 63.233 32.9684 63.6733 33.1275 64.0483C33.2894 64.4233 33.5167 64.7145 33.8093 64.9219C34.1048 65.1293 34.4513 65.233 34.8491 65.233C35.1104 65.233 35.3477 65.1875 35.5607 65.0966C35.7738 65.0057 35.9542 64.875 36.1019 64.7045C36.2496 64.5341 36.3548 64.3295 36.4173 64.0909H37.4229C37.3661 64.4773 37.2255 64.8253 37.0011 65.1349C36.7795 65.4418 36.4854 65.6861 36.119 65.8679C35.7553 66.0469 35.332 66.1364 34.8491 66.1364ZM39.7624 61.8239H41.6374C42.4045 61.8239 42.9911 62.0185 43.3974 62.4077C43.8036 62.7969 44.0067 63.2898 44.0067 63.8864C44.0067 64.2784 43.9158 64.6349 43.734 64.956C43.5522 65.2741 43.2852 65.5284 42.9329 65.7188C42.5806 65.9062 42.1488 66 41.6374 66H38.8931V59.4545H39.8988V65.0625H41.6374C42.0352 65.0625 42.3619 64.9574 42.6175 64.7472C42.8732 64.5369 43.0011 64.267 43.0011 63.9375C43.0011 63.5909 42.8732 63.3082 42.6175 63.0895C42.3619 62.8707 42.0352 62.7614 41.6374 62.7614H39.7624V61.8239ZM45.0465 66V59.4545H46.0522V66H45.0465Z" fill="black"/>
<rect x="500" width="6" height="310" fill="#F1F1F1"/>
</svg>
